<?xml version="1.0" encoding="utf-8"?>
<!-- Generator: Adobe Illustrator 20.1.0, SVG Export Plug-In . SVG Version: 6.00 Build 0)  -->
<svg version="1.1" xmlns="http://www.w3.org/2000/svg" xmlns:xlink="http://www.w3.org/1999/xlink" x="0px" y="0px"
	 viewBox="0 0 1280 720" style="enable-background:new 0 0 1280 720;" xml:space="preserve">
<style type="text/css">
	.st0{fill:#414042;stroke:#414042;stroke-width:3;stroke-miterlimit:10;}
	.st1{stroke:#FFFFFF;stroke-width:3;stroke-miterlimit:10;}
</style>
<g id="Layer_1">
	<rect width="1280" height="720"/>
</g>
<g id="Layer_3">
	<g>
		<path class="st0" d="M477.2,224.6c0-41.3,15.6-60.6,54.9-60.6c39.3,0,54.9,19.3,54.9,60.6s-15.6,60.6-54.9,60.6
			C492.8,285.2,477.2,265.9,477.2,224.6z"/>
		<path class="st0" d="M659.4,282.6v-63.9c0-19.8-4-28.6-16.5-28.6c-11.4,0-16.5,4.6-21.5,13.6v78.9h-32.1v-71.6
			c0-13.4-0.2-27.5-3.1-40.7l25.1-6.2c2.2,5.5,4.2,11.4,5.5,17.1c6.4-10.8,16.3-17.4,33.8-17.4c37.8,0,40.9,26.6,40.9,50.3v68.3
			H659.4z"/>
		<path class="st0" d="M748.6,285.2c-35.4,0-55.6-14.9-55.6-60.2c0-46.8,20.7-61.1,52.3-61.1c31.2,0,49.9,11.9,49.9,68.6l-69,7.3
			c2,14.1,8.6,19.6,22,19.6c12.1,0,22.9-2.4,34.1-9l9.7,22.2C779.4,281,765.5,285.2,748.6,285.2z M764,213.4
			c-0.4-17.1-6.8-23.7-18.7-23.7c-13.4,0-20.4,8.4-20.4,26.6v3.3L764,213.4z"/>
	</g>
	<g>
		<path class="st0" d="M585.9,404.6v-63.9c0-19.8-3.7-28.6-15.8-28.6c-11,0-15.8,4.6-20.7,13.6v78.9h-32.1v-75.4
			c0-10.3-5.3-17.1-15.8-17.1c-11,0-15.8,4.6-20.7,13.6v78.9h-32.1v-71.6c0-13.4-0.2-27.5-3.1-40.7l25.1-6.2
			c2.2,5.5,4.2,11.4,5.5,17.1c6.2-10.8,15.8-17.4,33.2-17.4c19.6,0,29.9,7.7,34.9,18.2c6.2-11.6,16.3-18.2,33.6-18.2
			c36.9,0,40,26.6,40,50.3v68.3H585.9z"/>
		<path class="st0" d="M699.3,407c-2.2-5.5-4.2-11.4-5.5-17.1c-6.4,10.8-16.3,17.4-33.6,17.4c-29.2,0-40.7-14.1-40.7-35.8
			c0-22.6,13.6-34.7,69.7-38c-0.9-16.7-9.2-20.9-22-20.9c-11,0-22,2.9-32.1,7.9l-9.7-23.5c13.8-7.9,29.4-11,46.8-11
			c30.5,0,49,18,49,45.7v28.6c0,13.4,0.2,27.5,3.1,40.7L699.3,407z M689.1,354.5c-27.7,1.5-37.6,6.4-37.6,15.8
			c0,8.6,4.2,12.1,16.7,12.1c11,0,16.5-5.9,20.9-15.4V354.5z"/>
		<path class="st0" d="M796.6,404.6v-63.9c0-19.8-4-28.6-16.5-28.6c-11.4,0-16.5,4.6-21.5,13.6v78.9h-32.1v-71.6
			c0-13.4-0.2-27.5-3.1-40.7l25-6.2c2.2,5.5,4.2,11.4,5.5,17.1c6.4-10.8,16.3-17.4,33.8-17.4c37.8,0,40.9,26.6,40.9,50.3v68.3H796.6
			z"/>
	</g>
	<g>
		<path class="st0" d="M519.2,528.2c-39.3,0-54.9-19.3-54.9-60.6s15.6-60.6,54.9-60.6c12.7,0,24.2,2,34.1,7.9l-10.3,23.5
			c-7-3.5-15.2-5.3-23.7-5.3c-19.3,0-22.6,12.7-22.6,34.5s3.3,34.5,22.6,34.5c8.6,0,16.7-1.8,23.7-5.3l10.3,23.5
			C543.3,526.2,531.9,528.2,519.2,528.2z"/>
		<path class="st0" d="M562.7,525.6c-4.2-10.8-4.8-24.8-4.8-39.8V371.5l32.1-3.7V488c0,11.9,0.2,27.2,2.9,37.6H562.7z"/>
		<path class="st0" d="M675.6,528c-2.2-5.5-4.2-11.4-5.5-17.1c-6.4,10.8-16.3,17.4-33.6,17.4c-29.2,0-40.7-14.1-40.7-35.8
			c0-22.6,13.6-34.7,69.7-38c-0.9-16.7-9.2-20.9-22-20.9c-11,0-22,2.9-32.1,7.9l-9.7-23.5c13.8-7.9,29.4-11,46.8-11
			c30.5,0,49,18,49,45.7v28.6c0,13.4,0.2,27.5,3.1,40.7L675.6,528z M665.5,475.5c-27.7,1.5-37.6,6.4-37.6,15.8
			c0,8.6,4.2,12.1,16.7,12.1c11,0,16.5-5.9,20.9-15.4V475.5z"/>
		<path class="st0" d="M775.2,525.6v-63.9c0-19.8-4-28.6-16.5-28.6c-11.4,0-16.5,4.6-21.5,13.6v78.9h-32.1v-71.6
			c0-13.4-0.2-27.5-3.1-40.7l25-6.2c2.2,5.5,4.2,11.4,5.5,17.1c6.4-10.8,16.3-17.4,33.8-17.4c37.8,0,40.9,26.6,40.9,50.3v68.3H775.2
			z"/>
	</g>
</g>
<g id="Layer_2">
	<g>
		<path class="st1" d="M473.2,220.6c0-41.3,15.6-60.6,54.9-60.6c39.3,0,54.9,19.3,54.9,60.6s-15.6,60.6-54.9,60.6
			C488.8,281.2,473.2,261.9,473.2,220.6z"/>
		<path class="st1" d="M655.4,278.6v-63.9c0-19.8-4-28.6-16.5-28.6c-11.4,0-16.5,4.6-21.5,13.6v78.9h-32.1v-71.6
			c0-13.4-0.2-27.5-3.1-40.7l25.1-6.2c2.2,5.5,4.2,11.4,5.5,17.1c6.4-10.8,16.3-17.4,33.8-17.4c37.8,0,40.9,26.6,40.9,50.3v68.3
			H655.4z"/>
		<path class="st1" d="M744.6,281.2c-35.4,0-55.6-14.9-55.6-60.2c0-46.8,20.7-61.1,52.3-61.1c31.2,0,49.9,11.9,49.9,68.6l-69,7.3
			c2,14.1,8.6,19.6,22,19.6c12.1,0,22.9-2.4,34.1-9l9.7,22.2C775.4,277,761.5,281.2,744.6,281.2z M760,209.4
			c-0.4-17.1-6.8-23.7-18.7-23.7c-13.4,0-20.4,8.4-20.4,26.6v3.3L760,209.4z"/>
	</g>
	<g>
		<path class="st1" d="M581.9,400.6v-63.9c0-19.8-3.7-28.6-15.8-28.6c-11,0-15.8,4.6-20.7,13.6v78.9h-32.1v-75.4
			c0-10.3-5.3-17.1-15.8-17.1c-11,0-15.8,4.6-20.7,13.6v78.9h-32.1v-71.6c0-13.4-0.2-27.5-3.1-40.7l25.1-6.2
			c2.2,5.5,4.2,11.4,5.5,17.1c6.2-10.8,15.8-17.4,33.2-17.4c19.6,0,29.9,7.7,34.9,18.2c6.2-11.6,16.3-18.2,33.6-18.2
			c36.9,0,40,26.6,40,50.3v68.3H581.9z"/>
		<path class="st1" d="M695.3,403c-2.2-5.5-4.2-11.4-5.5-17.1c-6.4,10.8-16.3,17.4-33.6,17.4c-29.2,0-40.7-14.1-40.7-35.8
			c0-22.6,13.6-34.7,69.7-38c-0.9-16.7-9.2-20.9-22-20.9c-11,0-22,2.9-32.1,7.9l-9.7-23.5c13.8-7.9,29.4-11,46.8-11
			c30.5,0,49,18,49,45.7v28.6c0,13.4,0.2,27.5,3.1,40.7L695.3,403z M685.1,350.5c-27.7,1.5-37.6,6.4-37.6,15.8
			c0,8.6,4.2,12.1,16.7,12.1c11,0,16.5-5.9,20.9-15.4V350.5z"/>
		<path class="st1" d="M792.6,400.6v-63.9c0-19.8-4-28.6-16.5-28.6c-11.4,0-16.5,4.6-21.5,13.6v78.9h-32.1v-71.6
			c0-13.4-0.2-27.5-3.1-40.7l25-6.2c2.2,5.5,4.2,11.4,5.5,17.1c6.4-10.8,16.3-17.4,33.8-17.4c37.8,0,40.9,26.6,40.9,50.3v68.3H792.6
			z"/>
	</g>
	<g>
		<path class="st1" d="M515.2,524.2c-39.3,0-54.9-19.3-54.9-60.6s15.6-60.6,54.9-60.6c12.7,0,24.2,2,34.1,7.9l-10.3,23.5
			c-7-3.5-15.2-5.3-23.7-5.3c-19.3,0-22.6,12.7-22.6,34.5s3.3,34.5,22.6,34.5c8.6,0,16.7-1.8,23.7-5.3l10.3,23.5
			C539.3,522.2,527.9,524.2,515.2,524.2z"/>
		<path class="st1" d="M558.7,521.6c-4.2-10.8-4.8-24.8-4.8-39.8V367.5l32.1-3.7V484c0,11.9,0.2,27.2,2.9,37.6H558.7z"/>
		<path class="st1" d="M671.6,524c-2.2-5.5-4.2-11.4-5.5-17.1c-6.4,10.8-16.3,17.4-33.6,17.4c-29.2,0-40.7-14.1-40.7-35.8
			c0-22.6,13.6-34.7,69.7-38c-0.9-16.7-9.2-20.9-22-20.9c-11,0-22,2.9-32.1,7.9l-9.7-23.5c13.8-7.9,29.4-11,46.8-11
			c30.5,0,49,18,49,45.7v28.6c0,13.4,0.2,27.5,3.1,40.7L671.6,524z M661.5,471.5c-27.7,1.5-37.6,6.4-37.6,15.8
			c0,8.6,4.2,12.1,16.7,12.1c11,0,16.5-5.9,20.9-15.4V471.5z"/>
		<path class="st1" d="M771.2,521.6v-63.9c0-19.8-4-28.6-16.5-28.6c-11.4,0-16.5,4.6-21.5,13.6v78.9h-32.1v-71.6
			c0-13.4-0.2-27.5-3.1-40.7l25-6.2c2.2,5.5,4.2,11.4,5.5,17.1c6.4-10.8,16.3-17.4,33.8-17.4c37.8,0,40.9,26.6,40.9,50.3v68.3H771.2
			z"/>
	</g>
	<g>
		<path class="st1" d="M545,180.1l-9.8,80.2l-20-2.5l5.3-43c0.8-6.2,1.1-10,0.9-11.2c-0.1-1.3-0.8-2.3-2.1-3.1
			c-1.3-0.8-4.2-1.5-8.8-2.1l-2-0.2l1.1-9.3c9.9-0.9,17.8-4.3,23.6-10.1L545,180.1z"/>
	</g>
</g>
</svg>
